<svg width="100" height="119" viewBox="0 0 100 119" fill="none" xmlns="http://www.w3.org/2000/svg">
<path fill-rule="evenodd" clip-rule="evenodd" d="M23.7215 39.2845L35.1699 32.6719L57.5906 19.7295L58.8915 20.4789L88.7072 37.6915L92.0865 39.6427L99.9953 44.2051V30.3436V16.4491L86.8596 8.86553L71.4993 0L63.5905 4.56709L71.504 9.12948C87.3309 18.2637 83.3907 15.9919 92.0912 21.0162V30.5086L41.7495 1.44696L38.9829 3.04474C28.0954 9.33215 24.2541 11.5615 15.7232 16.4915V25.6257L23.632 21.0586L33.3271 15.4593L41.7637 10.5906L49.6866 15.1671L23.632 30.2116L15.7232 34.7787L7.90875 39.294L2.76665 42.2633L0 43.8611L0 74.478L7.90404 79.0404V48.4234L15.7232 43.9082V101.716L28.8589 109.299L44.2193 118.165L52.128 113.598L44.2145 109.035C28.3876 99.901 32.3279 102.173 23.6273 97.1438V87.6514L73.9737 116.718L76.7403 115.12L100 101.687V74.2659L58.1326 98.4399L56.8318 97.6905L23.632 78.5266V56.7564V39.3458L23.7263 39.2893L23.7215 39.2845ZM92.0865 97.1061L73.9548 107.574L66.032 103.002L92.0865 87.9625V97.1108V97.1061Z" fill="white"/>
<path fill-rule="evenodd" clip-rule="evenodd" d="M21.7702 71.1037H71.9281H75.8306H84.9601L78.027 59.0992L71.0986 47.09L71.0844 47.0664H55.9127H17.2267L21.7938 54.9752H66.5126L71.2635 63.195L17.2031 63.1997L21.7702 71.1037Z" fill="white"/>
</svg>
