<svg xmlns="http://www.w3.org/2000/svg" xmlns:xlink="http://www.w3.org/1999/xlink" width="50" zoomAndPan="magnify" viewBox="0 0 47.25 38.999999" height="50" preserveAspectRatio="xMidYMid meet" version="1.0"><defs><g/><clipPath id="1bb01e1ec7"><path d="M 4.257812 1.152344 L 41.171875 1.152344 L 41.171875 38.066406 L 4.257812 38.066406 Z M 4.257812 1.152344 " clip-rule="nonzero"/></clipPath></defs><g clip-path="url(#1bb01e1ec7)"><path fill="#ff8a00" d="M 41.242188 19.644531 C 41.242188 20.25 41.210938 20.851562 41.152344 21.457031 C 41.09375 22.058594 41.003906 22.65625 40.886719 23.25 C 40.769531 23.84375 40.621094 24.429688 40.445312 25.011719 C 40.269531 25.589844 40.066406 26.160156 39.835938 26.71875 C 39.601562 27.277344 39.34375 27.824219 39.058594 28.359375 C 38.773438 28.894531 38.460938 29.414062 38.125 29.917969 C 37.789062 30.421875 37.429688 30.90625 37.042969 31.375 C 36.660156 31.84375 36.253906 32.289062 35.824219 32.71875 C 35.398438 33.148438 34.949219 33.554688 34.480469 33.9375 C 34.011719 34.320312 33.527344 34.683594 33.023438 35.019531 C 32.519531 35.355469 32 35.664062 31.46875 35.949219 C 30.933594 36.238281 30.386719 36.496094 29.828125 36.726562 C 29.265625 36.957031 28.699219 37.164062 28.117188 37.339844 C 27.539062 37.515625 26.953125 37.660156 26.359375 37.777344 C 25.765625 37.898438 25.164062 37.984375 24.5625 38.046875 C 23.960938 38.105469 23.355469 38.132812 22.75 38.132812 C 22.144531 38.132812 21.539062 38.105469 20.9375 38.046875 C 20.335938 37.984375 19.738281 37.898438 19.144531 37.777344 C 18.546875 37.660156 17.960938 37.515625 17.382812 37.339844 C 16.804688 37.164062 16.234375 36.957031 15.671875 36.726562 C 15.113281 36.496094 14.566406 36.238281 14.035156 35.949219 C 13.5 35.664062 12.980469 35.355469 12.476562 35.019531 C 11.972656 34.683594 11.488281 34.320312 11.019531 33.9375 C 10.550781 33.554688 10.101562 33.148438 9.675781 32.71875 C 9.246094 32.289062 8.839844 31.84375 8.457031 31.375 C 8.070312 30.90625 7.710938 30.421875 7.375 29.917969 C 7.039062 29.414062 6.726562 28.894531 6.441406 28.359375 C 6.15625 27.824219 5.898438 27.277344 5.667969 26.71875 C 5.433594 26.160156 5.230469 25.589844 5.054688 25.011719 C 4.878906 24.429688 4.730469 23.84375 4.613281 23.25 C 4.496094 22.65625 4.40625 22.058594 4.347656 21.457031 C 4.289062 20.851562 4.257812 20.25 4.257812 19.644531 C 4.257812 19.039062 4.289062 18.433594 4.347656 17.832031 C 4.40625 17.226562 4.496094 16.628906 4.613281 16.035156 C 4.730469 15.441406 4.878906 14.855469 5.054688 14.273438 C 5.230469 13.695312 5.433594 13.125 5.667969 12.566406 C 5.898438 12.007812 6.15625 11.460938 6.441406 10.925781 C 6.726562 10.390625 7.039062 9.875 7.375 9.371094 C 7.710938 8.867188 8.070312 8.378906 8.457031 7.910156 C 8.839844 7.445312 9.246094 6.996094 9.675781 6.566406 C 10.101562 6.140625 10.550781 5.734375 11.019531 5.347656 C 11.488281 4.964844 11.972656 4.605469 12.476562 4.269531 C 12.980469 3.929688 13.5 3.621094 14.035156 3.335938 C 14.566406 3.050781 15.113281 2.789062 15.671875 2.558594 C 16.234375 2.328125 16.804688 2.125 17.382812 1.949219 C 17.960938 1.773438 18.546875 1.625 19.144531 1.507812 C 19.738281 1.386719 20.335938 1.300781 20.9375 1.242188 C 21.539062 1.179688 22.144531 1.152344 22.75 1.152344 C 23.355469 1.152344 23.960938 1.179688 24.5625 1.242188 C 25.164062 1.300781 25.765625 1.386719 26.359375 1.507812 C 26.953125 1.625 27.539062 1.773438 28.117188 1.949219 C 28.699219 2.125 29.265625 2.328125 29.828125 2.558594 C 30.386719 2.789062 30.933594 3.050781 31.46875 3.335938 C 32 3.621094 32.519531 3.929688 33.023438 4.269531 C 33.527344 4.605469 34.011719 4.964844 34.480469 5.347656 C 34.949219 5.734375 35.398438 6.140625 35.824219 6.566406 C 36.253906 6.996094 36.660156 7.445312 37.042969 7.910156 C 37.429688 8.378906 37.789062 8.867188 38.125 9.371094 C 38.460938 9.875 38.773438 10.390625 39.058594 10.925781 C 39.34375 11.460938 39.601562 12.007812 39.835938 12.566406 C 40.066406 13.125 40.269531 13.695312 40.445312 14.273438 C 40.621094 14.855469 40.769531 15.441406 40.886719 16.035156 C 41.003906 16.628906 41.09375 17.226562 41.152344 17.832031 C 41.210938 18.433594 41.242188 19.039062 41.242188 19.644531 Z M 41.242188 19.644531 " fill-opacity="1" fill-rule="nonzero"/></g><g fill="#ffffff" fill-opacity="1"><g transform="translate(16.191431, 26.292188)"><g><path d="M 0.640625 0.265625 C 0.554688 0.148438 0.5 0.0351562 0.46875 -0.078125 C 0.4375 -0.203125 0.421875 -0.328125 0.421875 -0.453125 L 0.421875 -0.5 C 0.421875 -0.5 0.421875 -0.515625 0.421875 -0.546875 C 0.453125 -0.953125 0.59375 -1.226562 0.84375 -1.375 C 1.019531 -1.476562 1.273438 -1.53125 1.609375 -1.53125 C 1.941406 -1.53125 2.160156 -1.570312 2.265625 -1.65625 C 2.378906 -1.726562 2.441406 -1.820312 2.453125 -1.9375 C 2.503906 -2.144531 2.535156 -2.421875 2.546875 -2.765625 L 2.546875 -12.140625 C 2.535156 -12.484375 2.503906 -12.757812 2.453125 -12.96875 C 2.453125 -13 2.441406 -13.03125 2.421875 -13.0625 C 2.410156 -13.09375 2.394531 -13.125 2.375 -13.15625 C 2.351562 -13.1875 2.316406 -13.210938 2.265625 -13.234375 C 2.160156 -13.328125 1.941406 -13.375 1.609375 -13.375 L 1.46875 -13.375 C 1.40625 -13.375 1.347656 -13.375 1.296875 -13.375 C 1.253906 -13.382812 1.195312 -13.394531 1.125 -13.40625 C 1.050781 -13.414062 0.984375 -13.4375 0.921875 -13.46875 C 0.859375 -13.5 0.800781 -13.546875 0.75 -13.609375 C 0.71875 -13.617188 0.6875 -13.640625 0.65625 -13.671875 C 0.625 -13.703125 0.597656 -13.726562 0.578125 -13.75 C 0.566406 -13.78125 0.550781 -13.8125 0.53125 -13.84375 C 0.519531 -13.875 0.507812 -13.898438 0.5 -13.921875 C 0.5 -13.953125 0.492188 -13.984375 0.484375 -14.015625 C 0.472656 -14.054688 0.460938 -14.082031 0.453125 -14.09375 C 0.453125 -14.113281 0.453125 -14.144531 0.453125 -14.1875 C 0.453125 -14.226562 0.445312 -14.253906 0.4375 -14.265625 C 0.425781 -14.285156 0.421875 -14.3125 0.421875 -14.34375 C 0.421875 -14.375 0.421875 -14.394531 0.421875 -14.40625 L 0.421875 -14.453125 C 0.441406 -14.722656 0.515625 -14.960938 0.640625 -15.171875 C 0.710938 -15.296875 0.820312 -15.390625 0.96875 -15.453125 C 1.113281 -15.523438 1.265625 -15.5625 1.421875 -15.5625 L 1.4375 -15.5625 C 2.476562 -15.519531 3.410156 -15.5 4.234375 -15.5 L 11.640625 -15.5 C 11.816406 -15.5 11.976562 -15.472656 12.125 -15.421875 C 12.28125 -15.378906 12.421875 -15.296875 12.546875 -15.171875 C 12.753906 -14.960938 12.859375 -14.6875 12.859375 -14.34375 L 12.921875 -11.03125 C 12.921875 -10.664062 12.753906 -10.382812 12.421875 -10.1875 C 12.191406 -10.039062 11.945312 -9.96875 11.6875 -9.96875 C 11.644531 -9.96875 11.601562 -9.96875 11.5625 -9.96875 C 11.519531 -9.96875 11.472656 -9.972656 11.421875 -9.984375 C 11.378906 -9.992188 11.335938 -10 11.296875 -10 C 11.265625 -10.007812 11.226562 -10.019531 11.1875 -10.03125 C 11.144531 -10.050781 11.097656 -10.066406 11.046875 -10.078125 C 11.003906 -10.097656 10.96875 -10.117188 10.9375 -10.140625 C 10.625 -10.296875 10.4375 -10.546875 10.375 -10.890625 C 10.257812 -11.628906 10.132812 -12.179688 10 -12.546875 C 9.882812 -12.828125 9.738281 -13.03125 9.5625 -13.15625 C 9.363281 -13.28125 9.054688 -13.351562 8.640625 -13.375 L 6.078125 -13.375 L 6.078125 -8.546875 L 9.859375 -8.546875 C 10.140625 -8.503906 10.359375 -8.359375 10.515625 -8.109375 C 10.640625 -7.898438 10.703125 -7.671875 10.703125 -7.421875 C 10.703125 -7.359375 10.695312 -7.296875 10.6875 -7.234375 C 10.675781 -7.179688 10.660156 -7.128906 10.640625 -7.078125 C 10.628906 -7.023438 10.613281 -6.96875 10.59375 -6.90625 C 10.570312 -6.851562 10.546875 -6.800781 10.515625 -6.75 C 10.429688 -6.625 10.316406 -6.523438 10.171875 -6.453125 C 10.035156 -6.390625 9.894531 -6.359375 9.75 -6.359375 L 6.078125 -6.359375 L 6.078125 -2.5 C 6.109375 -2.21875 6.140625 -1.988281 6.171875 -1.8125 C 6.179688 -1.769531 6.242188 -1.71875 6.359375 -1.65625 C 6.484375 -1.5625 6.742188 -1.519531 7.140625 -1.53125 L 9.3125 -1.53125 C 9.539062 -1.550781 9.734375 -1.578125 9.890625 -1.609375 C 10.054688 -1.640625 10.175781 -1.675781 10.25 -1.71875 C 10.4375 -1.832031 10.585938 -2.007812 10.703125 -2.25 C 10.765625 -2.382812 10.847656 -2.585938 10.953125 -2.859375 C 11.054688 -3.140625 11.160156 -3.46875 11.265625 -3.84375 L 11.265625 -3.875 L 11.296875 -3.890625 C 11.398438 -4.179688 11.585938 -4.382812 11.859375 -4.5 C 12.128906 -4.613281 12.421875 -4.648438 12.734375 -4.609375 L 12.75 -4.609375 C 12.882812 -4.578125 13.003906 -4.53125 13.109375 -4.46875 C 13.222656 -4.414062 13.328125 -4.359375 13.421875 -4.296875 C 13.546875 -4.191406 13.644531 -4.054688 13.71875 -3.890625 C 13.789062 -3.734375 13.816406 -3.570312 13.796875 -3.40625 L 13.796875 -3.375 L 13.328125 -0.40625 L 13.328125 -0.375 L 13.296875 -0.359375 C 13.265625 -0.203125 13.21875 -0.0625 13.15625 0.0625 C 13.09375 0.195312 12.992188 0.3125 12.859375 0.40625 C 12.660156 0.53125 12.390625 0.59375 12.046875 0.59375 L 4.25 0.59375 C 3.820312 0.59375 3.375 0.59375 2.90625 0.59375 C 2.445312 0.601562 1.957031 0.625 1.4375 0.65625 L 1.421875 0.65625 C 1.085938 0.65625 0.828125 0.523438 0.640625 0.265625 Z M 0.640625 0.265625 "/></g></g></g></svg>